<svg width="24" height="25" viewBox="0 0 24 25" fill="none" xmlns="http://www.w3.org/2000/svg">
<path d="M11.25 3.96387V1.71387C11.25 1.51495 11.329 1.32419 11.4697 1.18354C11.6103 1.04288 11.8011 0.963867 12 0.963867C12.1989 0.963867 12.3897 1.04288 12.5303 1.18354C12.671 1.32419 12.75 1.51495 12.75 1.71387V3.96387C12.75 4.16278 12.671 4.35354 12.5303 4.4942C12.3897 4.63485 12.1989 4.71387 12 4.71387C11.8011 4.71387 11.6103 4.63485 11.4697 4.4942C11.329 4.35354 11.25 4.16278 11.25 3.96387ZM18 12.2139C18 13.4006 17.6481 14.5606 16.9888 15.5473C16.3295 16.534 15.3925 17.303 14.2961 17.7571C13.1997 18.2113 11.9933 18.3301 10.8295 18.0986C9.66557 17.8671 8.59647 17.2956 7.75736 16.4565C6.91824 15.6174 6.3468 14.5483 6.11529 13.3844C5.88378 12.2205 6.0026 11.0141 6.45672 9.91777C6.91085 8.82141 7.67988 7.88434 8.66658 7.22505C9.65327 6.56576 10.8133 6.21387 12 6.21387C13.5908 6.2156 15.1159 6.8483 16.2407 7.97315C17.3656 9.09799 17.9983 10.6231 18 12.2139ZM16.5 12.2139C16.5 11.3239 16.2361 10.4538 15.7416 9.7138C15.2471 8.97378 14.5443 8.397 13.7221 8.05641C12.8998 7.71582 11.995 7.6267 11.1221 7.80033C10.2492 7.97397 9.44736 8.40255 8.81802 9.03189C8.18868 9.66122 7.7601 10.463 7.58647 11.336C7.41283 12.2089 7.50195 13.1137 7.84254 13.9359C8.18314 14.7582 8.75991 15.461 9.49993 15.9555C10.24 16.4499 11.11 16.7139 12 16.7139C13.1931 16.7126 14.337 16.2381 15.1806 15.3945C16.0243 14.5508 16.4988 13.407 16.5 12.2139ZM5.46938 6.74449C5.61011 6.88522 5.80098 6.96428 6 6.96428C6.19902 6.96428 6.38989 6.88522 6.53063 6.74449C6.67136 6.60376 6.75042 6.41289 6.75042 6.21387C6.75042 6.01484 6.67136 5.82397 6.53063 5.68324L5.03062 4.18324C4.88989 4.04251 4.69902 3.96345 4.5 3.96345C4.30098 3.96345 4.11011 4.04251 3.96938 4.18324C3.82864 4.32397 3.74958 4.51484 3.74958 4.71387C3.74958 4.91289 3.82864 5.10376 3.96938 5.24449L5.46938 6.74449ZM5.46938 17.6832L3.96938 19.1832C3.82864 19.324 3.74958 19.5148 3.74958 19.7139C3.74958 19.9129 3.82864 20.1038 3.96938 20.2445C4.11011 20.3852 4.30098 20.4643 4.5 20.4643C4.69902 20.4643 4.88989 20.3852 5.03062 20.2445L6.53063 18.7445C6.60031 18.6748 6.65558 18.5921 6.6933 18.501C6.73101 18.41 6.75042 18.3124 6.75042 18.2139C6.75042 18.1153 6.73101 18.0177 6.6933 17.9267C6.65558 17.8357 6.60031 17.7529 6.53063 17.6832C6.46094 17.6136 6.37822 17.5583 6.28717 17.5206C6.19613 17.4829 6.09855 17.4634 6 17.4634C5.90145 17.4634 5.80387 17.4829 5.71283 17.5206C5.62178 17.5583 5.53906 17.6136 5.46938 17.6832ZM18 6.96387C18.0985 6.96394 18.1961 6.94461 18.2871 6.90697C18.3782 6.86933 18.4609 6.81412 18.5306 6.74449L20.0306 5.24449C20.1714 5.10376 20.2504 4.91289 20.2504 4.71387C20.2504 4.51484 20.1714 4.32397 20.0306 4.18324C19.8899 4.04251 19.699 3.96345 19.5 3.96345C19.301 3.96345 19.1101 4.04251 18.9694 4.18324L17.4694 5.68324C17.3644 5.78813 17.2928 5.92182 17.2639 6.06739C17.2349 6.21295 17.2497 6.36384 17.3065 6.50096C17.3633 6.63808 17.4596 6.75525 17.583 6.83766C17.7065 6.92006 17.8516 6.96398 18 6.96387ZM18.5306 17.6832C18.3899 17.5425 18.199 17.4634 18 17.4634C17.801 17.4634 17.6101 17.5425 17.4694 17.6832C17.3286 17.824 17.2496 18.0148 17.2496 18.2139C17.2496 18.4129 17.3286 18.6038 17.4694 18.7445L18.9694 20.2445C19.0391 20.3142 19.1218 20.3694 19.2128 20.4072C19.3039 20.4449 19.4015 20.4643 19.5 20.4643C19.5985 20.4643 19.6961 20.4449 19.7872 20.4072C19.8782 20.3694 19.9609 20.3142 20.0306 20.2445C20.1003 20.1748 20.1556 20.0921 20.1933 20.001C20.231 19.91 20.2504 19.8124 20.2504 19.7139C20.2504 19.6153 20.231 19.5177 20.1933 19.4267C20.1556 19.3357 20.1003 19.2529 20.0306 19.1832L18.5306 17.6832ZM4.5 12.2139C4.5 12.015 4.42098 11.8242 4.28033 11.6835C4.13968 11.5429 3.94891 11.4639 3.75 11.4639H1.5C1.30109 11.4639 1.11032 11.5429 0.96967 11.6835C0.829018 11.8242 0.75 12.015 0.75 12.2139C0.75 12.4128 0.829018 12.6035 0.96967 12.7442C1.11032 12.8849 1.30109 12.9639 1.5 12.9639H3.75C3.94891 12.9639 4.13968 12.8849 4.28033 12.7442C4.42098 12.6035 4.5 12.4128 4.5 12.2139ZM12 19.7139C11.8011 19.7139 11.6103 19.7929 11.4697 19.9335C11.329 20.0742 11.25 20.265 11.25 20.4639V22.7139C11.25 22.9128 11.329 23.1035 11.4697 23.2442C11.6103 23.3849 11.8011 23.4639 12 23.4639C12.1989 23.4639 12.3897 23.3849 12.5303 23.2442C12.671 23.1035 12.75 22.9128 12.75 22.7139V20.4639C12.75 20.265 12.671 20.0742 12.5303 19.9335C12.3897 19.7929 12.1989 19.7139 12 19.7139ZM22.5 11.4639H20.25C20.0511 11.4639 19.8603 11.5429 19.7197 11.6835C19.579 11.8242 19.5 12.015 19.5 12.2139C19.5 12.4128 19.579 12.6035 19.7197 12.7442C19.8603 12.8849 20.0511 12.9639 20.25 12.9639H22.5C22.6989 12.9639 22.8897 12.8849 23.0303 12.7442C23.171 12.6035 23.25 12.4128 23.25 12.2139C23.25 12.015 23.171 11.8242 23.0303 11.6835C22.8897 11.5429 22.6989 11.4639 22.5 11.4639Z" fill="#F5F5F5"/>
</svg>
